<svg viewBox="0 0 1440 810" fill="none" xmlns="http://www.w3.org/2000/svg" aria-hidden="true">
  <g clip-path="url(#cover-staircase-clip)">
    <path d="M399.694 703.192L64.5041 703.178L64.5142 535.591L-103 535.545L-102.99 200.677L-102.98 39.9999L399.593 39.9999L399.624 200.666L232.109 200.63L232.079 368.178C232.725 423.495 232.099 480.131 232.109 535.558L399.654 535.494L399.694 703.192Z" fill="#FFFFFF"/>
    <path d="M1401.69 1191.19L1066.5 1191.18L1066.51 1023.59L899 1023.55L899.01 688.677L899.02 528L1401.59 528L1401.62 688.666L1234.11 688.63L1234.08 856.178C1234.73 911.495 1234.1 968.131 1234.11 1023.56L1401.65 1023.49L1401.69 1191.19Z" fill="#FFFFFF"/>
    <path d="M1398.99 240.199C1288.85 241.82 1174.52 240.27 1064 240.19L1064.03 72.6361L1231.48 72.6725L1231.45 -88L1566.47 -88L1566.49 72.6452C1511.18 73.3221 1454.43 72.6594 1398.99 72.6553V240.199Z" fill="#FFFFFF"/>
  </g>
  <defs>
    <clipPath id="cover-staircase-clip">
      <rect width="2067" height="1157" transform="matrix(-1 0 0 -1 1720 959)"/>
    </clipPath>
  </defs>
</svg>
