<svg preserveAspectRatio="none" width="100%" height="100%" overflow="visible" style="display: block;" viewBox="0 0 1041 979" fill="none" xmlns="http://www.w3.org/2000/svg">
<g id="image 11 [Vectorized]" clip-path="url(#clip0_0_21)">
<path id="Vector" d="M904.185 0H1041V417.522C1011.96 417.835 982.764 417.519 953.704 417.426C938.16 417.377 920.425 418.221 905.177 417.303C905.829 424.708 905.588 433.671 905.582 441.243L905.549 476.937L905.593 531.311C905.61 537.092 906.558 554.827 905.155 559.12C900.125 560.79 873.925 560.072 866.643 560.056L794.316 560.023C784.859 560.018 771.315 559.481 762.352 559.81C763.206 583.6 762.998 609.4 762.932 633.262L762.85 725.221L762.905 798.624C762.954 812.608 763.612 830.82 762.571 844.333C801.263 845.379 840.936 844.256 879.7 844.645C887.984 844.727 896.548 844.125 904.782 844.229C903.769 837.237 904.026 828.257 904.026 821.057L904.021 788.243L904.026 734.951C904.026 728.616 903.292 707.076 904.908 702.339C912.184 701.474 935.262 702.027 943.414 702.033L1005.33 702.027C1016.76 702.022 1029.7 702.29 1041 701.841V845.357L905.686 844.995C904.848 853.542 905.467 872.652 905.5 881.839L905.544 947.221C905.566 953.523 906.141 973.881 905.04 979H761.47L761.535 885.387C761.535 872.109 761.234 858.251 761.601 845.056C748.348 844.579 729.5 845.28 715.709 845.28C683.356 845.176 651.003 845.242 618.655 845.488C618.299 838.146 618.579 828.405 618.59 820.915L618.622 774.806L618.595 730.735C618.562 721.531 618.277 711.407 618.716 702.285C613.702 703.062 605.32 702.838 600.016 702.843L569.005 702.86C539.239 702.909 506.043 703.807 476.637 702.794C477.427 717.282 477.226 731.364 477.22 745.852L477.197 804.751C477.193 814.53 476.667 836.744 477.777 845.543C444.497 844.305 409.111 845.981 375.707 845.286C363.935 845.045 344.893 846.123 333.991 844.946C334.936 856.975 334.275 879.003 334.278 891.668L334.259 979H46.9469C47.7472 942.583 46.6536 905.838 47.0691 869.388C47.1539 861.964 46.3492 852.343 47.2944 845.132C52.7134 844.349 61.6212 844.645 67.3812 844.672L97.3861 844.7C127.856 844.689 160.325 844.026 190.602 844.492C189.928 839.848 190.159 827.195 190.155 821.955L190.17 779.997L190.197 731.375C190.196 723.978 189.849 709.616 190.881 702.821C194.05 701.452 236.53 702.027 243.947 702.027L394.369 702.049L442.159 702.088C453.38 702.093 465.348 702.328 476.477 701.441C475.304 684.271 476.064 656.675 476.124 638.699C476.21 613.112 475.427 584.755 476.274 559.492C466.828 560.22 455.259 559.985 445.66 559.996L398.491 560.045C388.472 560.067 338.995 560.735 333.647 559.18C331.904 555.604 332.695 533.786 332.686 528.427L332.633 466.674L332.647 436.624C332.652 431.947 332.381 421.682 333.293 417.582C337.528 416.283 355.201 416.712 360.479 416.717L403.054 416.76L538.494 416.775C565.329 416.775 593.425 417.181 620.129 416.423C619.28 428.264 619.669 443.674 619.669 455.792L619.707 521.681C619.724 528.908 620.239 553.179 619.159 559.185C666.782 558.884 714.619 559.766 762.242 559.005C761.228 551.388 761.53 540.35 761.53 532.421V493.69L761.519 444.438C761.497 435.782 761.086 425.125 761.634 416.644C807.915 417.462 858.102 417.03 904.443 416.638C903.709 408.694 903.999 397.921 903.999 389.811L904.037 344.663L903.999 300.544C903.966 292.422 903.511 283.092 904.065 275.148C890.296 276 870.079 275.426 855.817 275.424L761.524 275.581L761.546 179.046C761.541 166.435 760.697 143.517 761.683 132.102C768.636 131.916 777.852 132.333 785.117 132.332L848.322 132.322L883.667 132.299C890.006 132.266 898.586 131.907 904.689 132.485C903.692 127.2 903.906 92.6212 904.043 85.311C904.558 57.5135 903.177 27.5453 904.185 0Z" fill="#0000BB"/>
</g>
<defs>
<clipPath id="clip0_0_21">
<rect width="1041" height="979" fill="white"/>
</clipPath>
</defs>
</svg>
