<svg width="658" height="104" viewBox="0 0 658 104" fill="none" xmlns="http://www.w3.org/2000/svg">
<path d="M657.597 0H304.968V104H657.597V0Z" fill="#0000BB"/>
<path d="M374.864 23.347C375.114 23.3114 375.37 23.3345 375.61 23.4145C375.85 23.4946 376.068 23.6294 376.247 23.8083C376.426 23.9872 376.561 24.2053 376.641 24.4454C376.721 24.6854 376.744 24.9407 376.708 25.1912V33.4224C376.708 34.7111 376.089 35.352 374.864 35.352H337.503C335.684 35.3144 333.867 35.4985 332.092 35.9002C330.806 36.1824 329.624 36.8187 328.681 37.7373C327.781 38.7196 327.16 39.9239 326.88 41.2263C326.474 43.0439 326.29 44.904 326.332 46.7659V58.6925C326.291 60.5685 326.475 62.4426 326.88 64.2749C327.149 65.6022 327.771 66.8322 328.681 67.8351C329.62 68.7575 330.799 69.3967 332.085 69.6792C333.86 70.081 335.677 70.2651 337.496 70.2275H374.864C375.114 70.1918 375.37 70.2149 375.61 70.295C375.85 70.3751 376.068 70.5099 376.247 70.6888C376.426 70.8677 376.561 71.0858 376.641 71.3258C376.721 71.5658 376.744 71.8212 376.708 72.0717V80.3028C376.744 80.5533 376.721 80.8087 376.641 81.0487C376.561 81.2887 376.426 81.5068 376.247 81.6857C376.068 81.8646 375.85 81.9994 375.61 82.0795C375.37 82.1596 375.114 82.1827 374.864 82.147H336.998C333.35 82.2161 329.709 81.8214 326.161 80.9721C323.461 80.3278 320.966 79.0155 318.905 77.1556C316.948 75.2652 315.528 72.8891 314.789 70.2702C313.852 66.9232 313.413 63.4563 313.486 59.9813V45.5127C313.411 42.0516 313.85 38.5986 314.789 35.2665C315.535 32.6631 316.955 30.3026 318.905 28.4239C320.97 26.5606 323.462 25.2351 326.161 24.5646C329.704 23.685 333.348 23.2757 336.998 23.347H374.864Z" fill="white"/>
<path d="M47.6067 23.346C54.0435 23.346 58.6599 24.8009 61.4558 27.7107C64.2518 30.6206 65.6521 34.9308 65.6569 40.6413V45.4262C65.6569 50.2396 64.6766 54.0371 62.7161 56.8188C60.7557 59.6005 57.5657 61.4019 53.1464 62.2231L67.501 80.024C67.6467 80.1954 67.7466 80.4008 67.7915 80.6212C67.8363 80.8416 67.8245 81.0697 67.7574 81.2844C67.6434 81.8469 67.1948 82.1246 66.4116 82.1246H55.5815C55.0657 82.1635 54.548 82.078 54.072 81.8753C53.7374 81.6557 53.4515 81.3697 53.2318 81.0351L39.9666 63.5618H12.8167V80.2733C12.8523 80.5238 12.8292 80.7791 12.7492 81.0191C12.6691 81.2591 12.5343 81.4772 12.3554 81.6561C12.1764 81.8351 11.9584 81.9699 11.7183 82.0499C11.4783 82.13 11.223 82.1531 10.9725 82.1174H1.92962C0.640833 82.1174 0 81.5051 0 80.2733V25.8666C0 24.1862 0.840203 23.346 2.52061 23.346H47.6067ZM12.8167 53.3227H45.0007C47.8488 53.3227 49.8639 52.7056 51.0459 51.4714C52.2279 50.2372 52.8165 48.3622 52.8117 45.8463V42.2861C52.8117 39.7655 52.2231 37.8905 51.0459 36.661C49.8686 35.4316 47.8536 34.8145 45.0007 34.8097H13.9345C13.2225 34.8097 12.8451 35.1515 12.8451 35.8208L12.8167 53.3227Z" fill="#020A0A"/>
<path d="M121.2 23.3485C124.862 23.2796 128.517 23.6889 132.073 24.5661C134.787 25.2303 137.295 26.5562 139.372 28.4253C141.316 30.3014 142.722 32.6642 143.444 35.268C144.354 38.6053 144.778 42.056 144.705 45.5142V59.9543C144.776 63.4264 144.352 66.891 143.444 70.2432C142.73 72.8624 141.323 75.2409 139.372 77.1286C137.299 78.9945 134.788 80.3072 132.073 80.9451C128.513 81.7921 124.86 82.1868 121.2 82.12H95.2538C91.6086 82.1892 87.9693 81.7944 84.4238 80.9451C81.7209 80.3025 79.2233 78.99 77.161 77.1286C75.2064 75.2362 73.7866 72.8609 73.0454 70.2432C72.1078 66.8962 71.6688 63.4293 71.7424 59.9543V45.5142C71.667 42.0531 72.1062 38.6 73.0454 35.268C73.7937 32.6658 75.213 30.306 77.161 28.4253C79.2274 26.5608 81.7221 25.2352 84.4238 24.5661C87.9647 23.6865 91.606 23.2771 95.2538 23.3485H121.2ZM84.5946 59.0286C84.5585 60.8782 84.7402 62.7256 85.1358 64.5327C85.4074 65.8605 86.0322 67.0904 86.9444 68.0928C87.8812 69.0138 89.0581 69.6529 90.3408 69.937C92.1175 70.3423 93.9375 70.5264 95.7594 70.4853H120.681C122.5 70.5263 124.318 70.3422 126.092 69.937C127.377 69.6545 128.557 69.0153 129.496 68.0928C130.405 67.0898 131.028 65.8599 131.297 64.5327C131.699 62.7265 131.883 60.8786 131.845 59.0286V46.4398C131.883 44.5899 131.699 42.7421 131.297 40.9358C131.028 39.6086 130.405 38.3787 129.496 37.3756C128.552 36.4814 127.379 35.8675 126.106 35.6026C124.331 35.2009 122.514 35.0168 120.695 35.0544H95.7736C93.9519 35.0168 92.1323 35.2009 90.355 35.6026C89.0724 35.8868 87.8955 36.5258 86.9586 37.4468C86.0465 38.4492 85.4217 39.6792 85.15 41.007C84.7547 42.8142 84.5731 44.6615 84.6089 46.511L84.5946 59.0286Z" fill="#020A0A"/>
<path d="M200.423 23.3483C204.085 23.2794 207.74 23.6887 211.295 24.5659C214.008 25.2329 216.515 26.5584 218.594 28.4251C220.536 30.3029 221.942 32.6651 222.667 35.2678C223.576 38.6051 224 42.0558 223.927 45.514V59.9541C223.999 63.4262 223.574 66.8908 222.667 70.243C221.949 72.861 220.543 75.2387 218.594 77.1284C216.517 78.9931 214.005 80.3055 211.288 80.9449C207.728 81.7918 204.075 82.1866 200.416 82.1198H174.448C170.802 82.1885 167.163 81.7937 163.618 80.9449C160.916 80.2991 158.419 78.987 156.355 77.1284C154.402 75.2356 152.985 72.8602 152.246 70.243C151.311 66.8957 150.874 63.4287 150.95 59.9541V45.514C150.875 42.0529 151.314 38.5998 152.253 35.2678C152.999 32.666 154.416 30.3062 156.362 28.4251C158.43 26.5633 160.924 25.238 163.625 24.5659C167.163 23.6873 170.802 23.2779 174.448 23.3483H200.423ZM163.817 59.0284C163.781 60.878 163.962 62.7253 164.358 64.5324C164.633 65.8592 165.257 67.0884 166.167 68.0926C167.105 69.0151 168.285 69.6543 169.57 69.9368C171.344 70.342 173.162 70.5261 174.982 70.4851H199.903C201.725 70.5262 203.545 70.342 205.321 69.9368C206.604 69.6527 207.781 69.0136 208.718 68.0926C209.63 67.0902 210.255 65.8603 210.526 64.5324C210.925 62.7257 211.109 60.8783 211.075 59.0284V46.4396C211.109 44.5898 210.925 42.7424 210.526 40.9356C210.255 39.6078 209.63 38.3778 208.718 37.3754C207.776 36.4827 206.606 35.8689 205.336 35.6024C203.558 35.2007 201.739 35.0166 199.917 35.0542H174.996C173.176 35.0166 171.359 35.2007 169.584 35.6024C168.299 35.885 167.119 36.5241 166.181 37.4466C165.271 38.4508 164.647 39.68 164.372 41.0068C163.977 42.8139 163.795 44.6613 163.831 46.5108L163.817 59.0284Z" fill="#020A0A"/>
<path d="M295.493 23.346C296.775 23.346 297.423 23.9654 297.423 25.1901V33.4213C297.46 33.6833 297.435 33.9502 297.351 34.2011C297.267 34.4519 297.126 34.6799 296.939 34.8669C296.752 35.054 296.524 35.1951 296.273 35.2791C296.022 35.363 295.755 35.3876 295.493 35.3509H269.148V80.2733C269.184 80.5238 269.161 80.7791 269.081 81.0191C269 81.2591 268.866 81.4772 268.687 81.6561C268.508 81.8351 268.29 81.9699 268.05 82.0499C267.81 82.13 267.554 82.1531 267.304 82.1174H258.111C257.86 82.1543 257.604 82.1322 257.363 82.0526C257.122 81.9731 256.903 81.8385 256.724 81.6594C256.544 81.4803 256.408 81.2618 256.328 81.0212C256.247 80.7805 256.224 80.5244 256.26 80.2733V35.3509H229.915C229.652 35.3889 229.385 35.3652 229.133 35.2817C228.881 35.1983 228.652 35.0574 228.464 34.8702C228.276 34.683 228.134 34.4546 228.05 34.2031C227.966 33.9516 227.941 33.6839 227.978 33.4213V25.1901C227.978 23.9654 228.626 23.346 229.915 23.346H295.493Z" fill="#020A0A"/>
<path d="M432.001 23.3484C435.668 23.2782 439.328 23.6876 442.888 24.566C445.602 25.2302 448.11 26.5561 450.187 28.4252C452.139 30.2988 453.553 32.6618 454.281 35.2679C455.19 38.6052 455.614 42.0559 455.541 45.5141V59.9542C455.613 63.4263 455.188 66.8909 454.281 70.2431C453.566 72.8624 452.159 75.2408 450.208 77.1285C448.129 78.9976 445.611 80.3105 442.888 80.945C439.328 81.792 435.675 82.1867 432.015 82.1199H406.055C402.409 82.1887 398.77 81.7939 395.224 80.945C392.522 80.3024 390.024 78.9899 387.962 77.1285C386.009 75.2342 384.59 72.8596 383.846 70.2431C382.909 66.8961 382.469 63.4292 382.543 59.9542V45.5141C382.468 42.053 382.907 38.5999 383.846 35.2679C384.597 32.6669 386.016 30.3078 387.962 28.4252C390.028 26.5607 392.523 25.2351 395.224 24.566C398.765 23.6868 402.407 23.2774 406.055 23.3484H432.001ZM395.395 59.0285C395.359 60.8781 395.541 62.7255 395.936 64.5326C396.208 65.8604 396.833 67.0903 397.745 68.0928C398.682 69.0138 399.859 69.6528 401.141 69.9369C402.918 70.3422 404.738 70.5263 406.56 70.4852H431.481C433.301 70.5262 435.119 70.3421 436.893 69.9369C438.178 69.6544 439.358 69.0152 440.296 68.0928C441.206 67.0885 441.83 65.8593 442.105 64.5326C442.501 62.7255 442.682 60.8781 442.646 59.0285V46.4397C442.682 44.5902 442.5 42.7429 442.105 40.9357C441.83 39.6089 441.206 38.3798 440.296 37.3755C439.353 36.4813 438.18 35.8674 436.907 35.6026C435.132 35.2008 433.315 35.0167 431.496 35.0543H406.574C404.753 35.0167 402.933 35.2009 401.156 35.6026C399.873 35.8867 398.696 36.5257 397.759 37.4467C396.847 38.4492 396.222 39.6791 395.951 41.0069C395.555 42.8141 395.374 44.6614 395.41 46.5109L395.395 59.0285Z" fill="white"/>
<path d="M503.443 23.3481C507.38 23.2858 511.306 23.765 515.113 24.7721C518.075 25.5374 520.81 27.0025 523.088 29.0444C525.222 31.075 526.799 33.62 527.666 36.4353C528.701 39.8575 529.196 43.4201 529.133 46.9948V58.3874C529.208 62.0025 528.713 65.6068 527.666 69.0679C526.797 71.8802 525.22 74.4225 523.088 76.4517C520.807 78.4899 518.073 79.9545 515.113 80.724C511.304 81.7129 507.377 82.1776 503.443 82.1053H464.145C462.465 82.1053 461.632 81.2651 461.632 79.5847V25.8687C461.632 24.1883 462.465 23.3481 464.145 23.3481H503.443ZM474.477 69.3599C474.455 69.5079 474.469 69.6589 474.516 69.8009C474.563 69.9429 474.643 70.0719 474.749 70.1777C474.854 70.2835 474.983 70.3631 475.125 70.4103C475.267 70.4574 475.418 70.4708 475.566 70.4493H503.108C505.198 70.4922 507.284 70.2672 509.317 69.78C510.836 69.4139 512.234 68.6608 513.375 67.594C514.47 66.4773 515.24 65.0843 515.604 63.5639C516.088 61.5307 516.313 59.4445 516.273 57.3549V48.0985C516.313 46.0065 516.088 43.9179 515.604 41.8824C515.236 40.3696 514.466 38.9844 513.375 37.8736C512.23 36.8047 510.827 36.0515 509.303 35.6877C507.269 35.2039 505.183 34.979 503.094 35.0183H475.566C474.84 35.0183 474.477 35.41 474.477 36.1932V69.3599Z" fill="white"/>
<path d="M594.378 23.3484C595.667 23.3484 596.315 23.9679 596.315 25.1926V33.1745C596.315 34.4063 595.667 35.0187 594.378 35.0187H557.687C555.867 34.9811 554.05 35.1652 552.275 35.567C550.98 35.8559 549.788 36.4936 548.829 37.4111C547.902 38.4019 547.277 39.6371 547.028 40.9713C546.66 42.7823 546.491 44.6278 546.522 46.4753V47.2799H593.958C594.209 47.243 594.465 47.2652 594.706 47.3447C594.947 47.4243 595.166 47.5589 595.346 47.738C595.526 47.917 595.661 48.1356 595.742 48.3762C595.822 48.6169 595.845 48.8729 595.809 49.1241V55.7603C595.845 56.0115 595.822 56.2676 595.742 56.5082C595.661 56.7488 595.526 56.9674 595.346 57.1465C595.166 57.3255 594.947 57.4602 594.706 57.5397C594.465 57.6192 594.209 57.6414 593.958 57.6045H546.522V59.0285C546.491 60.8761 546.66 62.7217 547.028 64.5326C547.277 65.8667 547.902 67.102 548.829 68.0928C549.788 69.0103 550.98 69.648 552.275 69.9369C554.05 70.3421 555.867 70.5262 557.687 70.4852H594.378C595.667 70.4852 596.315 71.1047 596.315 72.3365V80.3113C596.315 81.5431 595.667 82.1555 594.378 82.1555H557.438C553.792 82.2243 550.153 81.8295 546.608 80.9806C543.905 80.338 541.407 79.0255 539.345 77.1641C537.393 75.2698 535.973 72.8952 535.229 70.2787C534.292 66.9317 533.853 63.4648 533.926 59.9898V45.5141C533.851 42.053 534.29 38.5999 535.229 35.2679C535.98 32.6669 537.399 30.3078 539.345 28.4252C541.411 26.5607 543.906 25.2351 546.608 24.566C550.149 23.6868 553.79 23.2774 557.438 23.3484H594.378Z" fill="white"/>
<path d="M648.841 88.1647C649.046 88.1364 649.254 88.1559 649.45 88.2217C649.646 88.2875 649.825 88.3979 649.971 88.5442C650.117 88.6904 650.228 88.8686 650.293 89.0646C650.359 89.2607 650.379 89.4694 650.35 89.6742V94.7012C650.379 94.9061 650.359 95.1148 650.293 95.3108C650.228 95.5069 650.117 95.6851 649.971 95.8313C649.825 95.9776 649.646 96.0879 649.45 96.1538C649.254 96.2196 649.046 96.2391 648.841 96.2107H598.884C598.681 96.2358 598.475 96.2137 598.282 96.1462C598.089 96.0788 597.914 95.9677 597.771 95.8217C597.628 95.6758 597.52 95.4987 597.456 95.3044C597.393 95.1101 597.374 94.9037 597.403 94.7012V89.66C597.373 89.4549 597.392 89.2455 597.457 89.0488C597.522 88.852 597.633 88.6732 597.779 88.5266C597.926 88.38 598.105 88.2696 598.302 88.2043C598.498 88.139 598.708 88.1206 598.913 88.1505L648.841 88.1647Z" fill="white"/>
</svg>
